<mxfile host="app.diagrams.net" agent="Mozilla/5.0 (Windows NT 10.0; Win64; x64) AppleWebKit/537.36 (KHTML, like Gecko) Chrome/130.0.0.0 Safari/537.36" version="26.0.5">
  <diagram name="페이지-1" id="KhDiWh-z0yk_Jw_qy04d">
    <mxGraphModel dx="2074" dy="1106" grid="1" gridSize="10" guides="1" tooltips="1" connect="1" arrows="1" fold="1" page="1" pageScale="1" pageWidth="827" pageHeight="1169" math="0" shadow="0">
      <root>
        <mxCell id="0" />
        <mxCell id="1" parent="0" />
        <mxCell id="C0WDzYQqJSP90UdCh95B-2" value="&lt;table border=&quot;0&quot; cellpadding=&quot;0&quot; cellspacing=&quot;0&quot; width=&quot;84&quot; style=&quot;border-collapse:&lt;br/&gt; collapse;width:63pt&quot;&gt; &lt;colgroup&gt;&lt;col width=&quot;84&quot; style=&quot;mso-width-source:userset;mso-width-alt:2688;width:63pt&quot;&gt;&lt;/colgroup&gt; &lt;tbody&gt;&lt;tr height=&quot;22&quot; style=&quot;height:16.5pt&quot;&gt;  &lt;td height=&quot;22&quot; class=&quot;xl65&quot; width=&quot;84&quot; style=&quot;height:16.5pt;width:63pt&quot;&gt;ItemID&lt;/td&gt; &lt;/tr&gt; &lt;tr height=&quot;22&quot; style=&quot;height:16.5pt&quot;&gt;  &lt;td height=&quot;22&quot; class=&quot;xl65&quot; style=&quot;height:16.5pt&quot;&gt;#Version&lt;/td&gt; &lt;/tr&gt; &lt;tr height=&quot;22&quot; style=&quot;height:16.5pt&quot;&gt;  &lt;td height=&quot;22&quot; class=&quot;xl65&quot; style=&quot;height:16.5pt&quot;&gt;IsService&lt;/td&gt; &lt;/tr&gt; &lt;tr height=&quot;22&quot; style=&quot;height:16.5pt&quot;&gt;  &lt;td height=&quot;22&quot; class=&quot;xl65&quot; style=&quot;height:16.5pt&quot;&gt;ItemName&lt;/td&gt; &lt;/tr&gt; &lt;tr height=&quot;22&quot; style=&quot;height:16.5pt&quot;&gt;  &lt;td height=&quot;22&quot; class=&quot;xl65&quot; style=&quot;height:16.5pt&quot;&gt;ItemNameID&lt;/td&gt; &lt;/tr&gt; &lt;tr height=&quot;22&quot; style=&quot;height:16.5pt&quot;&gt;  &lt;td height=&quot;22&quot; class=&quot;xl65&quot; style=&quot;height:16.5pt&quot;&gt;ItemToolTipID&lt;/td&gt; &lt;/tr&gt; &lt;tr height=&quot;22&quot; style=&quot;height:16.5pt&quot;&gt;  &lt;td height=&quot;22&quot; class=&quot;xl65&quot; style=&quot;height:16.5pt&quot;&gt;IconID&lt;/td&gt; &lt;/tr&gt; &lt;tr height=&quot;22&quot; style=&quot;height:16.5pt&quot;&gt;  &lt;td height=&quot;22&quot; class=&quot;xl65&quot; style=&quot;height:16.5pt&quot;&gt;ItemCategory&lt;/td&gt; &lt;/tr&gt; &lt;tr height=&quot;22&quot; style=&quot;height:16.5pt&quot;&gt;  &lt;td height=&quot;22&quot; class=&quot;xl65&quot; style=&quot;height:16.5pt&quot;&gt;ItemType&lt;/td&gt; &lt;/tr&gt; &lt;tr height=&quot;22&quot; style=&quot;height:16.5pt&quot;&gt;  &lt;td height=&quot;22&quot; class=&quot;xl65&quot; style=&quot;height:16.5pt&quot;&gt;Grade&lt;/td&gt; &lt;/tr&gt; &lt;tr height=&quot;22&quot; style=&quot;height:16.5pt&quot;&gt;  &lt;td height=&quot;22&quot; class=&quot;xl65&quot; style=&quot;height:16.5pt&quot;&gt;MainOptionID&lt;/td&gt; &lt;/tr&gt; &lt;tr height=&quot;22&quot; style=&quot;height:16.5pt&quot;&gt;  &lt;td height=&quot;22&quot; class=&quot;xl65&quot; style=&quot;height:16.5pt&quot;&gt;SubOptionID&lt;/td&gt; &lt;/tr&gt;&lt;/tbody&gt;&lt;/table&gt;" style="text;whiteSpace=wrap;html=1;" vertex="1" parent="1">
          <mxGeometry x="360" y="160" width="120" height="280" as="geometry" />
        </mxCell>
        <mxCell id="C0WDzYQqJSP90UdCh95B-3" value="Item" style="swimlane;fontStyle=0;childLayout=stackLayout;horizontal=1;startSize=30;horizontalStack=0;resizeParent=1;resizeParentMax=0;resizeLast=0;collapsible=1;marginBottom=0;whiteSpace=wrap;html=1;perimeterSpacing=1;strokeColor=default;" vertex="1" parent="1">
          <mxGeometry x="50" y="500" width="140" height="480" as="geometry" />
        </mxCell>
        <mxCell id="C0WDzYQqJSP90UdCh95B-4" value="ItemID" style="text;strokeColor=default;fillColor=none;align=left;verticalAlign=middle;spacingLeft=4;spacingRight=4;overflow=hidden;points=[[0,0.5],[1,0.5]];portConstraint=eastwest;rotatable=0;whiteSpace=wrap;html=1;perimeterSpacing=1;" vertex="1" parent="C0WDzYQqJSP90UdCh95B-3">
          <mxGeometry y="30" width="140" height="30" as="geometry" />
        </mxCell>
        <mxCell id="C0WDzYQqJSP90UdCh95B-5" value="#Version" style="text;strokeColor=default;fillColor=none;align=left;verticalAlign=middle;spacingLeft=4;spacingRight=4;overflow=hidden;points=[[0,0.5],[1,0.5]];portConstraint=eastwest;rotatable=0;whiteSpace=wrap;html=1;perimeterSpacing=1;" vertex="1" parent="C0WDzYQqJSP90UdCh95B-3">
          <mxGeometry y="60" width="140" height="30" as="geometry" />
        </mxCell>
        <mxCell id="C0WDzYQqJSP90UdCh95B-6" value="IsService" style="text;strokeColor=default;fillColor=none;align=left;verticalAlign=middle;spacingLeft=4;spacingRight=4;overflow=hidden;points=[[0,0.5],[1,0.5]];portConstraint=eastwest;rotatable=0;whiteSpace=wrap;html=1;perimeterSpacing=1;" vertex="1" parent="C0WDzYQqJSP90UdCh95B-3">
          <mxGeometry y="90" width="140" height="30" as="geometry" />
        </mxCell>
        <mxCell id="C0WDzYQqJSP90UdCh95B-7" value="ItemName" style="text;strokeColor=default;fillColor=none;align=left;verticalAlign=middle;spacingLeft=4;spacingRight=4;overflow=hidden;points=[[0,0.5],[1,0.5]];portConstraint=eastwest;rotatable=0;whiteSpace=wrap;html=1;perimeterSpacing=1;" vertex="1" parent="C0WDzYQqJSP90UdCh95B-3">
          <mxGeometry y="120" width="140" height="30" as="geometry" />
        </mxCell>
        <mxCell id="C0WDzYQqJSP90UdCh95B-8" value="ItemNameKey" style="text;strokeColor=default;fillColor=none;align=left;verticalAlign=middle;spacingLeft=4;spacingRight=4;overflow=hidden;points=[[0,0.5],[1,0.5]];portConstraint=eastwest;rotatable=0;whiteSpace=wrap;html=1;perimeterSpacing=1;" vertex="1" parent="C0WDzYQqJSP90UdCh95B-3">
          <mxGeometry y="150" width="140" height="30" as="geometry" />
        </mxCell>
        <mxCell id="C0WDzYQqJSP90UdCh95B-9" value="ItemTooltipKey" style="text;strokeColor=default;fillColor=none;align=left;verticalAlign=middle;spacingLeft=4;spacingRight=4;overflow=hidden;points=[[0,0.5],[1,0.5]];portConstraint=eastwest;rotatable=0;whiteSpace=wrap;html=1;perimeterSpacing=1;" vertex="1" parent="C0WDzYQqJSP90UdCh95B-3">
          <mxGeometry y="180" width="140" height="30" as="geometry" />
        </mxCell>
        <mxCell id="C0WDzYQqJSP90UdCh95B-10" value="IconID" style="text;strokeColor=default;fillColor=none;align=left;verticalAlign=middle;spacingLeft=4;spacingRight=4;overflow=hidden;points=[[0,0.5],[1,0.5]];portConstraint=eastwest;rotatable=0;whiteSpace=wrap;html=1;perimeterSpacing=1;" vertex="1" parent="C0WDzYQqJSP90UdCh95B-3">
          <mxGeometry y="210" width="140" height="30" as="geometry" />
        </mxCell>
        <mxCell id="C0WDzYQqJSP90UdCh95B-11" value="ItemCategory" style="text;strokeColor=default;fillColor=none;align=left;verticalAlign=middle;spacingLeft=4;spacingRight=4;overflow=hidden;points=[[0,0.5],[1,0.5]];portConstraint=eastwest;rotatable=0;whiteSpace=wrap;html=1;perimeterSpacing=1;" vertex="1" parent="C0WDzYQqJSP90UdCh95B-3">
          <mxGeometry y="240" width="140" height="30" as="geometry" />
        </mxCell>
        <mxCell id="C0WDzYQqJSP90UdCh95B-12" value="ItemType" style="text;strokeColor=default;fillColor=none;align=left;verticalAlign=middle;spacingLeft=4;spacingRight=4;overflow=hidden;points=[[0,0.5],[1,0.5]];portConstraint=eastwest;rotatable=0;whiteSpace=wrap;html=1;perimeterSpacing=1;" vertex="1" parent="C0WDzYQqJSP90UdCh95B-3">
          <mxGeometry y="270" width="140" height="30" as="geometry" />
        </mxCell>
        <mxCell id="C0WDzYQqJSP90UdCh95B-13" value="Grade" style="text;strokeColor=default;fillColor=none;align=left;verticalAlign=middle;spacingLeft=4;spacingRight=4;overflow=hidden;points=[[0,0.5],[1,0.5]];portConstraint=eastwest;rotatable=0;whiteSpace=wrap;html=1;perimeterSpacing=1;" vertex="1" parent="C0WDzYQqJSP90UdCh95B-3">
          <mxGeometry y="300" width="140" height="30" as="geometry" />
        </mxCell>
        <mxCell id="C0WDzYQqJSP90UdCh95B-17" value="Stack" style="text;strokeColor=default;fillColor=none;align=left;verticalAlign=middle;spacingLeft=4;spacingRight=4;overflow=hidden;points=[[0,0.5],[1,0.5]];portConstraint=eastwest;rotatable=0;whiteSpace=wrap;html=1;perimeterSpacing=1;" vertex="1" parent="C0WDzYQqJSP90UdCh95B-3">
          <mxGeometry y="330" width="140" height="30" as="geometry" />
        </mxCell>
        <mxCell id="C0WDzYQqJSP90UdCh95B-14" value="MainOptionID" style="text;strokeColor=default;fillColor=none;align=left;verticalAlign=middle;spacingLeft=4;spacingRight=4;overflow=hidden;points=[[0,0.5],[1,0.5]];portConstraint=eastwest;rotatable=0;whiteSpace=wrap;html=1;perimeterSpacing=1;" vertex="1" parent="C0WDzYQqJSP90UdCh95B-3">
          <mxGeometry y="360" width="140" height="30" as="geometry" />
        </mxCell>
        <mxCell id="C0WDzYQqJSP90UdCh95B-15" value="SubOptionID" style="text;strokeColor=default;fillColor=none;align=left;verticalAlign=middle;spacingLeft=4;spacingRight=4;overflow=hidden;points=[[0,0.5],[1,0.5]];portConstraint=eastwest;rotatable=0;whiteSpace=wrap;html=1;perimeterSpacing=1;" vertex="1" parent="C0WDzYQqJSP90UdCh95B-3">
          <mxGeometry y="390" width="140" height="30" as="geometry" />
        </mxCell>
        <mxCell id="C0WDzYQqJSP90UdCh95B-16" value="SpecialOptionID" style="text;strokeColor=default;fillColor=none;align=left;verticalAlign=middle;spacingLeft=4;spacingRight=4;overflow=hidden;points=[[0,0.5],[1,0.5]];portConstraint=eastwest;rotatable=0;whiteSpace=wrap;html=1;perimeterSpacing=1;" vertex="1" parent="C0WDzYQqJSP90UdCh95B-3">
          <mxGeometry y="420" width="140" height="30" as="geometry" />
        </mxCell>
        <mxCell id="C0WDzYQqJSP90UdCh95B-18" value="ConsumeValue" style="text;strokeColor=default;fillColor=none;align=left;verticalAlign=middle;spacingLeft=4;spacingRight=4;overflow=hidden;points=[[0,0.5],[1,0.5]];portConstraint=eastwest;rotatable=0;whiteSpace=wrap;html=1;perimeterSpacing=1;" vertex="1" parent="C0WDzYQqJSP90UdCh95B-3">
          <mxGeometry y="450" width="140" height="30" as="geometry" />
        </mxCell>
        <mxCell id="C0WDzYQqJSP90UdCh95B-19" value="Item_Option_Main" style="swimlane;fontStyle=0;childLayout=stackLayout;horizontal=1;startSize=30;horizontalStack=0;resizeParent=1;resizeParentMax=0;resizeLast=0;collapsible=1;marginBottom=0;whiteSpace=wrap;html=1;perimeterSpacing=1;strokeColor=default;" vertex="1" parent="1">
          <mxGeometry x="230" y="500" width="140" height="240" as="geometry" />
        </mxCell>
        <mxCell id="C0WDzYQqJSP90UdCh95B-20" value="TID" style="text;strokeColor=default;fillColor=none;align=left;verticalAlign=middle;spacingLeft=4;spacingRight=4;overflow=hidden;points=[[0,0.5],[1,0.5]];portConstraint=eastwest;rotatable=0;whiteSpace=wrap;html=1;perimeterSpacing=1;" vertex="1" parent="C0WDzYQqJSP90UdCh95B-19">
          <mxGeometry y="30" width="140" height="30" as="geometry" />
        </mxCell>
        <mxCell id="C0WDzYQqJSP90UdCh95B-21" value="#Version" style="text;strokeColor=default;fillColor=none;align=left;verticalAlign=middle;spacingLeft=4;spacingRight=4;overflow=hidden;points=[[0,0.5],[1,0.5]];portConstraint=eastwest;rotatable=0;whiteSpace=wrap;html=1;perimeterSpacing=1;" vertex="1" parent="C0WDzYQqJSP90UdCh95B-19">
          <mxGeometry y="60" width="140" height="30" as="geometry" />
        </mxCell>
        <mxCell id="C0WDzYQqJSP90UdCh95B-22" value="IsService" style="text;strokeColor=default;fillColor=none;align=left;verticalAlign=middle;spacingLeft=4;spacingRight=4;overflow=hidden;points=[[0,0.5],[1,0.5]];portConstraint=eastwest;rotatable=0;whiteSpace=wrap;html=1;perimeterSpacing=1;" vertex="1" parent="C0WDzYQqJSP90UdCh95B-19">
          <mxGeometry y="90" width="140" height="30" as="geometry" />
        </mxCell>
        <mxCell id="C0WDzYQqJSP90UdCh95B-23" value="MainOptionID" style="text;strokeColor=default;fillColor=none;align=left;verticalAlign=middle;spacingLeft=4;spacingRight=4;overflow=hidden;points=[[0,0.5],[1,0.5]];portConstraint=eastwest;rotatable=0;whiteSpace=wrap;html=1;perimeterSpacing=1;" vertex="1" parent="C0WDzYQqJSP90UdCh95B-19">
          <mxGeometry y="120" width="140" height="30" as="geometry" />
        </mxCell>
        <mxCell id="C0WDzYQqJSP90UdCh95B-24" value="Lv" style="text;strokeColor=default;fillColor=none;align=left;verticalAlign=middle;spacingLeft=4;spacingRight=4;overflow=hidden;points=[[0,0.5],[1,0.5]];portConstraint=eastwest;rotatable=0;whiteSpace=wrap;html=1;perimeterSpacing=1;" vertex="1" parent="C0WDzYQqJSP90UdCh95B-19">
          <mxGeometry y="150" width="140" height="30" as="geometry" />
        </mxCell>
        <mxCell id="C0WDzYQqJSP90UdCh95B-25" value="StatID" style="text;strokeColor=default;fillColor=none;align=left;verticalAlign=middle;spacingLeft=4;spacingRight=4;overflow=hidden;points=[[0,0.5],[1,0.5]];portConstraint=eastwest;rotatable=0;whiteSpace=wrap;html=1;perimeterSpacing=1;" vertex="1" parent="C0WDzYQqJSP90UdCh95B-19">
          <mxGeometry y="180" width="140" height="30" as="geometry" />
        </mxCell>
        <mxCell id="C0WDzYQqJSP90UdCh95B-26" value="StatValue" style="text;strokeColor=default;fillColor=none;align=left;verticalAlign=middle;spacingLeft=4;spacingRight=4;overflow=hidden;points=[[0,0.5],[1,0.5]];portConstraint=eastwest;rotatable=0;whiteSpace=wrap;html=1;perimeterSpacing=1;" vertex="1" parent="C0WDzYQqJSP90UdCh95B-19">
          <mxGeometry y="210" width="140" height="30" as="geometry" />
        </mxCell>
        <mxCell id="C0WDzYQqJSP90UdCh95B-36" value="Item_Option_Sub" style="swimlane;fontStyle=0;childLayout=stackLayout;horizontal=1;startSize=30;horizontalStack=0;resizeParent=1;resizeParentMax=0;resizeLast=0;collapsible=1;marginBottom=0;whiteSpace=wrap;html=1;perimeterSpacing=1;strokeColor=default;" vertex="1" parent="1">
          <mxGeometry x="406" y="500" width="140" height="330" as="geometry" />
        </mxCell>
        <mxCell id="C0WDzYQqJSP90UdCh95B-37" value="TID" style="text;strokeColor=default;fillColor=none;align=left;verticalAlign=middle;spacingLeft=4;spacingRight=4;overflow=hidden;points=[[0,0.5],[1,0.5]];portConstraint=eastwest;rotatable=0;whiteSpace=wrap;html=1;perimeterSpacing=1;" vertex="1" parent="C0WDzYQqJSP90UdCh95B-36">
          <mxGeometry y="30" width="140" height="30" as="geometry" />
        </mxCell>
        <mxCell id="C0WDzYQqJSP90UdCh95B-38" value="#Version" style="text;strokeColor=default;fillColor=none;align=left;verticalAlign=middle;spacingLeft=4;spacingRight=4;overflow=hidden;points=[[0,0.5],[1,0.5]];portConstraint=eastwest;rotatable=0;whiteSpace=wrap;html=1;perimeterSpacing=1;" vertex="1" parent="C0WDzYQqJSP90UdCh95B-36">
          <mxGeometry y="60" width="140" height="30" as="geometry" />
        </mxCell>
        <mxCell id="C0WDzYQqJSP90UdCh95B-39" value="IsService" style="text;strokeColor=default;fillColor=none;align=left;verticalAlign=middle;spacingLeft=4;spacingRight=4;overflow=hidden;points=[[0,0.5],[1,0.5]];portConstraint=eastwest;rotatable=0;whiteSpace=wrap;html=1;perimeterSpacing=1;" vertex="1" parent="C0WDzYQqJSP90UdCh95B-36">
          <mxGeometry y="90" width="140" height="30" as="geometry" />
        </mxCell>
        <mxCell id="C0WDzYQqJSP90UdCh95B-40" value="SubOptionID" style="text;strokeColor=default;fillColor=none;align=left;verticalAlign=middle;spacingLeft=4;spacingRight=4;overflow=hidden;points=[[0,0.5],[1,0.5]];portConstraint=eastwest;rotatable=0;whiteSpace=wrap;html=1;perimeterSpacing=1;" vertex="1" parent="C0WDzYQqJSP90UdCh95B-36">
          <mxGeometry y="120" width="140" height="30" as="geometry" />
        </mxCell>
        <mxCell id="C0WDzYQqJSP90UdCh95B-41" value="StatID" style="text;strokeColor=default;fillColor=none;align=left;verticalAlign=middle;spacingLeft=4;spacingRight=4;overflow=hidden;points=[[0,0.5],[1,0.5]];portConstraint=eastwest;rotatable=0;whiteSpace=wrap;html=1;perimeterSpacing=1;" vertex="1" parent="C0WDzYQqJSP90UdCh95B-36">
          <mxGeometry y="150" width="140" height="30" as="geometry" />
        </mxCell>
        <mxCell id="C0WDzYQqJSP90UdCh95B-54" value="Probablity" style="text;strokeColor=default;fillColor=none;align=left;verticalAlign=middle;spacingLeft=4;spacingRight=4;overflow=hidden;points=[[0,0.5],[1,0.5]];portConstraint=eastwest;rotatable=0;whiteSpace=wrap;html=1;perimeterSpacing=1;" vertex="1" parent="C0WDzYQqJSP90UdCh95B-36">
          <mxGeometry y="180" width="140" height="30" as="geometry" />
        </mxCell>
        <mxCell id="C0WDzYQqJSP90UdCh95B-42" value="MinValue" style="text;strokeColor=default;fillColor=none;align=left;verticalAlign=middle;spacingLeft=4;spacingRight=4;overflow=hidden;points=[[0,0.5],[1,0.5]];portConstraint=eastwest;rotatable=0;whiteSpace=wrap;html=1;perimeterSpacing=1;" vertex="1" parent="C0WDzYQqJSP90UdCh95B-36">
          <mxGeometry y="210" width="140" height="30" as="geometry" />
        </mxCell>
        <mxCell id="C0WDzYQqJSP90UdCh95B-43" value="MaxValue" style="text;strokeColor=default;fillColor=none;align=left;verticalAlign=middle;spacingLeft=4;spacingRight=4;overflow=hidden;points=[[0,0.5],[1,0.5]];portConstraint=eastwest;rotatable=0;whiteSpace=wrap;html=1;perimeterSpacing=1;" vertex="1" parent="C0WDzYQqJSP90UdCh95B-36">
          <mxGeometry y="240" width="140" height="30" as="geometry" />
        </mxCell>
        <mxCell id="C0WDzYQqJSP90UdCh95B-53" value="Step" style="text;strokeColor=default;fillColor=none;align=left;verticalAlign=middle;spacingLeft=4;spacingRight=4;overflow=hidden;points=[[0,0.5],[1,0.5]];portConstraint=eastwest;rotatable=0;whiteSpace=wrap;html=1;perimeterSpacing=1;" vertex="1" parent="C0WDzYQqJSP90UdCh95B-36">
          <mxGeometry y="270" width="140" height="30" as="geometry" />
        </mxCell>
        <mxCell id="C0WDzYQqJSP90UdCh95B-67" value="StartStepMax" style="text;strokeColor=default;fillColor=none;align=left;verticalAlign=middle;spacingLeft=4;spacingRight=4;overflow=hidden;points=[[0,0.5],[1,0.5]];portConstraint=eastwest;rotatable=0;whiteSpace=wrap;html=1;perimeterSpacing=1;" vertex="1" parent="C0WDzYQqJSP90UdCh95B-36">
          <mxGeometry y="300" width="140" height="30" as="geometry" />
        </mxCell>
        <mxCell id="C0WDzYQqJSP90UdCh95B-44" value="Item_Option_Special" style="swimlane;fontStyle=0;childLayout=stackLayout;horizontal=1;startSize=30;horizontalStack=0;resizeParent=1;resizeParentMax=0;resizeLast=0;collapsible=1;marginBottom=0;whiteSpace=wrap;html=1;perimeterSpacing=1;strokeColor=default;" vertex="1" parent="1">
          <mxGeometry x="586" y="500" width="140" height="270" as="geometry" />
        </mxCell>
        <mxCell id="C0WDzYQqJSP90UdCh95B-45" value="TID" style="text;strokeColor=default;fillColor=none;align=left;verticalAlign=middle;spacingLeft=4;spacingRight=4;overflow=hidden;points=[[0,0.5],[1,0.5]];portConstraint=eastwest;rotatable=0;whiteSpace=wrap;html=1;perimeterSpacing=1;" vertex="1" parent="C0WDzYQqJSP90UdCh95B-44">
          <mxGeometry y="30" width="140" height="30" as="geometry" />
        </mxCell>
        <mxCell id="C0WDzYQqJSP90UdCh95B-46" value="#Version" style="text;strokeColor=default;fillColor=none;align=left;verticalAlign=middle;spacingLeft=4;spacingRight=4;overflow=hidden;points=[[0,0.5],[1,0.5]];portConstraint=eastwest;rotatable=0;whiteSpace=wrap;html=1;perimeterSpacing=1;" vertex="1" parent="C0WDzYQqJSP90UdCh95B-44">
          <mxGeometry y="60" width="140" height="30" as="geometry" />
        </mxCell>
        <mxCell id="C0WDzYQqJSP90UdCh95B-47" value="IsService" style="text;strokeColor=default;fillColor=none;align=left;verticalAlign=middle;spacingLeft=4;spacingRight=4;overflow=hidden;points=[[0,0.5],[1,0.5]];portConstraint=eastwest;rotatable=0;whiteSpace=wrap;html=1;perimeterSpacing=1;" vertex="1" parent="C0WDzYQqJSP90UdCh95B-44">
          <mxGeometry y="90" width="140" height="30" as="geometry" />
        </mxCell>
        <mxCell id="C0WDzYQqJSP90UdCh95B-66" value="SpecialOptionID" style="text;strokeColor=default;fillColor=none;align=left;verticalAlign=middle;spacingLeft=4;spacingRight=4;overflow=hidden;points=[[0,0.5],[1,0.5]];portConstraint=eastwest;rotatable=0;whiteSpace=wrap;html=1;perimeterSpacing=1;" vertex="1" parent="C0WDzYQqJSP90UdCh95B-44">
          <mxGeometry y="120" width="140" height="30" as="geometry" />
        </mxCell>
        <mxCell id="C0WDzYQqJSP90UdCh95B-48" value="OptionType" style="text;strokeColor=default;fillColor=none;align=left;verticalAlign=middle;spacingLeft=4;spacingRight=4;overflow=hidden;points=[[0,0.5],[1,0.5]];portConstraint=eastwest;rotatable=0;whiteSpace=wrap;html=1;perimeterSpacing=1;" vertex="1" parent="C0WDzYQqJSP90UdCh95B-44">
          <mxGeometry y="150" width="140" height="30" as="geometry" />
        </mxCell>
        <mxCell id="C0WDzYQqJSP90UdCh95B-49" value="SetCount" style="text;strokeColor=default;fillColor=none;align=left;verticalAlign=middle;spacingLeft=4;spacingRight=4;overflow=hidden;points=[[0,0.5],[1,0.5]];portConstraint=eastwest;rotatable=0;whiteSpace=wrap;html=1;perimeterSpacing=1;" vertex="1" parent="C0WDzYQqJSP90UdCh95B-44">
          <mxGeometry y="180" width="140" height="30" as="geometry" />
        </mxCell>
        <mxCell id="C0WDzYQqJSP90UdCh95B-50" value="CharacterID" style="text;strokeColor=default;fillColor=none;align=left;verticalAlign=middle;spacingLeft=4;spacingRight=4;overflow=hidden;points=[[0,0.5],[1,0.5]];portConstraint=eastwest;rotatable=0;whiteSpace=wrap;html=1;perimeterSpacing=1;" vertex="1" parent="C0WDzYQqJSP90UdCh95B-44">
          <mxGeometry y="210" width="140" height="30" as="geometry" />
        </mxCell>
        <mxCell id="C0WDzYQqJSP90UdCh95B-51" value="OptionValue" style="text;strokeColor=default;fillColor=none;align=left;verticalAlign=middle;spacingLeft=4;spacingRight=4;overflow=hidden;points=[[0,0.5],[1,0.5]];portConstraint=eastwest;rotatable=0;whiteSpace=wrap;html=1;perimeterSpacing=1;" vertex="1" parent="C0WDzYQqJSP90UdCh95B-44">
          <mxGeometry y="240" width="140" height="30" as="geometry" />
        </mxCell>
        <mxCell id="C0WDzYQqJSP90UdCh95B-56" value="GameConfig" style="swimlane;fontStyle=0;childLayout=stackLayout;horizontal=1;startSize=30;horizontalStack=0;resizeParent=1;resizeParentMax=0;resizeLast=0;collapsible=1;marginBottom=0;whiteSpace=wrap;html=1;perimeterSpacing=1;strokeColor=default;" vertex="1" parent="1">
          <mxGeometry x="230" y="869" width="140" height="300" as="geometry" />
        </mxCell>
        <mxCell id="C0WDzYQqJSP90UdCh95B-57" value="TID" style="text;strokeColor=default;fillColor=none;align=left;verticalAlign=middle;spacingLeft=4;spacingRight=4;overflow=hidden;points=[[0,0.5],[1,0.5]];portConstraint=eastwest;rotatable=0;whiteSpace=wrap;html=1;perimeterSpacing=1;" vertex="1" parent="C0WDzYQqJSP90UdCh95B-56">
          <mxGeometry y="30" width="140" height="30" as="geometry" />
        </mxCell>
        <mxCell id="C0WDzYQqJSP90UdCh95B-58" value="#Version" style="text;strokeColor=default;fillColor=none;align=left;verticalAlign=middle;spacingLeft=4;spacingRight=4;overflow=hidden;points=[[0,0.5],[1,0.5]];portConstraint=eastwest;rotatable=0;whiteSpace=wrap;html=1;perimeterSpacing=1;" vertex="1" parent="C0WDzYQqJSP90UdCh95B-56">
          <mxGeometry y="60" width="140" height="30" as="geometry" />
        </mxCell>
        <mxCell id="C0WDzYQqJSP90UdCh95B-59" value="Grade" style="text;strokeColor=default;fillColor=none;align=left;verticalAlign=middle;spacingLeft=4;spacingRight=4;overflow=hidden;points=[[0,0.5],[1,0.5]];portConstraint=eastwest;rotatable=0;whiteSpace=wrap;html=1;perimeterSpacing=1;" vertex="1" parent="C0WDzYQqJSP90UdCh95B-56">
          <mxGeometry y="90" width="140" height="30" as="geometry" />
        </mxCell>
        <mxCell id="C0WDzYQqJSP90UdCh95B-60" value="SubOptionCount" style="text;strokeColor=default;fillColor=none;align=left;verticalAlign=middle;spacingLeft=4;spacingRight=4;overflow=hidden;points=[[0,0.5],[1,0.5]];portConstraint=eastwest;rotatable=0;whiteSpace=wrap;html=1;perimeterSpacing=1;" vertex="1" parent="C0WDzYQqJSP90UdCh95B-56">
          <mxGeometry y="120" width="140" height="30" as="geometry" />
        </mxCell>
        <mxCell id="C0WDzYQqJSP90UdCh95B-61" value="StatID" style="text;strokeColor=default;fillColor=none;align=left;verticalAlign=middle;spacingLeft=4;spacingRight=4;overflow=hidden;points=[[0,0.5],[1,0.5]];portConstraint=eastwest;rotatable=0;whiteSpace=wrap;html=1;perimeterSpacing=1;" vertex="1" parent="C0WDzYQqJSP90UdCh95B-56">
          <mxGeometry y="150" width="140" height="30" as="geometry" />
        </mxCell>
        <mxCell id="C0WDzYQqJSP90UdCh95B-62" value="Probablity" style="text;strokeColor=default;fillColor=none;align=left;verticalAlign=middle;spacingLeft=4;spacingRight=4;overflow=hidden;points=[[0,0.5],[1,0.5]];portConstraint=eastwest;rotatable=0;whiteSpace=wrap;html=1;perimeterSpacing=1;" vertex="1" parent="C0WDzYQqJSP90UdCh95B-56">
          <mxGeometry y="180" width="140" height="30" as="geometry" />
        </mxCell>
        <mxCell id="C0WDzYQqJSP90UdCh95B-63" value="MinValue" style="text;strokeColor=default;fillColor=none;align=left;verticalAlign=middle;spacingLeft=4;spacingRight=4;overflow=hidden;points=[[0,0.5],[1,0.5]];portConstraint=eastwest;rotatable=0;whiteSpace=wrap;html=1;perimeterSpacing=1;" vertex="1" parent="C0WDzYQqJSP90UdCh95B-56">
          <mxGeometry y="210" width="140" height="30" as="geometry" />
        </mxCell>
        <mxCell id="C0WDzYQqJSP90UdCh95B-64" value="MaxValue" style="text;strokeColor=default;fillColor=none;align=left;verticalAlign=middle;spacingLeft=4;spacingRight=4;overflow=hidden;points=[[0,0.5],[1,0.5]];portConstraint=eastwest;rotatable=0;whiteSpace=wrap;html=1;perimeterSpacing=1;" vertex="1" parent="C0WDzYQqJSP90UdCh95B-56">
          <mxGeometry y="240" width="140" height="30" as="geometry" />
        </mxCell>
        <mxCell id="C0WDzYQqJSP90UdCh95B-65" value="Step" style="text;strokeColor=default;fillColor=none;align=left;verticalAlign=middle;spacingLeft=4;spacingRight=4;overflow=hidden;points=[[0,0.5],[1,0.5]];portConstraint=eastwest;rotatable=0;whiteSpace=wrap;html=1;perimeterSpacing=1;" vertex="1" parent="C0WDzYQqJSP90UdCh95B-56">
          <mxGeometry y="270" width="140" height="30" as="geometry" />
        </mxCell>
        <mxCell id="C0WDzYQqJSP90UdCh95B-68" value="Craft" style="swimlane;fontStyle=0;childLayout=stackLayout;horizontal=1;startSize=30;horizontalStack=0;resizeParent=1;resizeParentMax=0;resizeLast=0;collapsible=1;marginBottom=0;whiteSpace=wrap;html=1;perimeterSpacing=1;strokeColor=default;" vertex="1" parent="1">
          <mxGeometry x="1070" y="510" width="140" height="420" as="geometry" />
        </mxCell>
        <mxCell id="C0WDzYQqJSP90UdCh95B-69" value="ID" style="text;strokeColor=default;fillColor=none;align=left;verticalAlign=middle;spacingLeft=4;spacingRight=4;overflow=hidden;points=[[0,0.5],[1,0.5]];portConstraint=eastwest;rotatable=0;whiteSpace=wrap;html=1;perimeterSpacing=1;" vertex="1" parent="C0WDzYQqJSP90UdCh95B-68">
          <mxGeometry y="30" width="140" height="30" as="geometry" />
        </mxCell>
        <mxCell id="C0WDzYQqJSP90UdCh95B-70" value="#Version" style="text;strokeColor=default;fillColor=none;align=left;verticalAlign=middle;spacingLeft=4;spacingRight=4;overflow=hidden;points=[[0,0.5],[1,0.5]];portConstraint=eastwest;rotatable=0;whiteSpace=wrap;html=1;perimeterSpacing=1;" vertex="1" parent="C0WDzYQqJSP90UdCh95B-68">
          <mxGeometry y="60" width="140" height="30" as="geometry" />
        </mxCell>
        <mxCell id="C0WDzYQqJSP90UdCh95B-71" value="IsService" style="text;strokeColor=default;fillColor=none;align=left;verticalAlign=middle;spacingLeft=4;spacingRight=4;overflow=hidden;points=[[0,0.5],[1,0.5]];portConstraint=eastwest;rotatable=0;whiteSpace=wrap;html=1;perimeterSpacing=1;" vertex="1" parent="C0WDzYQqJSP90UdCh95B-68">
          <mxGeometry y="90" width="140" height="30" as="geometry" />
        </mxCell>
        <mxCell id="C0WDzYQqJSP90UdCh95B-72" value="Category" style="text;strokeColor=default;fillColor=none;align=left;verticalAlign=middle;spacingLeft=4;spacingRight=4;overflow=hidden;points=[[0,0.5],[1,0.5]];portConstraint=eastwest;rotatable=0;whiteSpace=wrap;html=1;perimeterSpacing=1;" vertex="1" parent="C0WDzYQqJSP90UdCh95B-68">
          <mxGeometry y="120" width="140" height="30" as="geometry" />
        </mxCell>
        <mxCell id="C0WDzYQqJSP90UdCh95B-73" value="ResultID" style="text;strokeColor=default;fillColor=none;align=left;verticalAlign=middle;spacingLeft=4;spacingRight=4;overflow=hidden;points=[[0,0.5],[1,0.5]];portConstraint=eastwest;rotatable=0;whiteSpace=wrap;html=1;perimeterSpacing=1;" vertex="1" parent="C0WDzYQqJSP90UdCh95B-68">
          <mxGeometry y="150" width="140" height="30" as="geometry" />
        </mxCell>
        <mxCell id="C0WDzYQqJSP90UdCh95B-74" value="RecipeID" style="text;strokeColor=default;fillColor=none;align=left;verticalAlign=middle;spacingLeft=4;spacingRight=4;overflow=hidden;points=[[0,0.5],[1,0.5]];portConstraint=eastwest;rotatable=0;whiteSpace=wrap;html=1;perimeterSpacing=1;" vertex="1" parent="C0WDzYQqJSP90UdCh95B-68">
          <mxGeometry y="180" width="140" height="30" as="geometry" />
        </mxCell>
        <mxCell id="C0WDzYQqJSP90UdCh95B-75" value="CustomSlotCount" style="text;strokeColor=default;fillColor=none;align=left;verticalAlign=middle;spacingLeft=4;spacingRight=4;overflow=hidden;points=[[0,0.5],[1,0.5]];portConstraint=eastwest;rotatable=0;whiteSpace=wrap;html=1;perimeterSpacing=1;" vertex="1" parent="C0WDzYQqJSP90UdCh95B-68">
          <mxGeometry y="210" width="140" height="30" as="geometry" />
        </mxCell>
        <mxCell id="C0WDzYQqJSP90UdCh95B-76" value="CustomSlotType" style="text;strokeColor=default;fillColor=none;align=left;verticalAlign=middle;spacingLeft=4;spacingRight=4;overflow=hidden;points=[[0,0.5],[1,0.5]];portConstraint=eastwest;rotatable=0;whiteSpace=wrap;html=1;perimeterSpacing=1;" vertex="1" parent="C0WDzYQqJSP90UdCh95B-68">
          <mxGeometry y="240" width="140" height="30" as="geometry" />
        </mxCell>
        <mxCell id="C0WDzYQqJSP90UdCh95B-77" value="ResultType" style="text;strokeColor=default;fillColor=none;align=left;verticalAlign=middle;spacingLeft=4;spacingRight=4;overflow=hidden;points=[[0,0.5],[1,0.5]];portConstraint=eastwest;rotatable=0;whiteSpace=wrap;html=1;perimeterSpacing=1;" vertex="1" parent="C0WDzYQqJSP90UdCh95B-68">
          <mxGeometry y="270" width="140" height="30" as="geometry" />
        </mxCell>
        <mxCell id="C0WDzYQqJSP90UdCh95B-78" value="ResultID" style="text;strokeColor=default;fillColor=none;align=left;verticalAlign=middle;spacingLeft=4;spacingRight=4;overflow=hidden;points=[[0,0.5],[1,0.5]];portConstraint=eastwest;rotatable=0;whiteSpace=wrap;html=1;perimeterSpacing=1;" vertex="1" parent="C0WDzYQqJSP90UdCh95B-68">
          <mxGeometry y="300" width="140" height="30" as="geometry" />
        </mxCell>
        <mxCell id="C0WDzYQqJSP90UdCh95B-79" value="RecipeID" style="text;strokeColor=default;fillColor=none;align=left;verticalAlign=middle;spacingLeft=4;spacingRight=4;overflow=hidden;points=[[0,0.5],[1,0.5]];portConstraint=eastwest;rotatable=0;whiteSpace=wrap;html=1;perimeterSpacing=1;" vertex="1" parent="C0WDzYQqJSP90UdCh95B-68">
          <mxGeometry y="330" width="140" height="30" as="geometry" />
        </mxCell>
        <mxCell id="C0WDzYQqJSP90UdCh95B-80" value="CustomSlotCount" style="text;strokeColor=default;fillColor=none;align=left;verticalAlign=middle;spacingLeft=4;spacingRight=4;overflow=hidden;points=[[0,0.5],[1,0.5]];portConstraint=eastwest;rotatable=0;whiteSpace=wrap;html=1;perimeterSpacing=1;" vertex="1" parent="C0WDzYQqJSP90UdCh95B-68">
          <mxGeometry y="360" width="140" height="30" as="geometry" />
        </mxCell>
        <mxCell id="C0WDzYQqJSP90UdCh95B-81" value="CustomSlotType" style="text;strokeColor=default;fillColor=none;align=left;verticalAlign=middle;spacingLeft=4;spacingRight=4;overflow=hidden;points=[[0,0.5],[1,0.5]];portConstraint=eastwest;rotatable=0;whiteSpace=wrap;html=1;perimeterSpacing=1;" vertex="1" parent="C0WDzYQqJSP90UdCh95B-68">
          <mxGeometry y="390" width="140" height="30" as="geometry" />
        </mxCell>
        <mxCell id="C0WDzYQqJSP90UdCh95B-82" value="&lt;table border=&quot;0&quot; cellpadding=&quot;0&quot; cellspacing=&quot;0&quot; width=&quot;84&quot; style=&quot;border-collapse:&lt;br/&gt; collapse;width:63pt&quot;&gt; &lt;colgroup&gt;&lt;col width=&quot;84&quot; style=&quot;mso-width-source:userset;mso-width-alt:2688;width:63pt&quot;&gt;&lt;/colgroup&gt; &lt;tbody&gt;&lt;tr height=&quot;22&quot; style=&quot;height:16.5pt&quot;&gt;  &lt;td height=&quot;22&quot; class=&quot;xl65&quot; width=&quot;84&quot; style=&quot;height:16.5pt;width:63pt&quot;&gt;ItemID&lt;/td&gt; &lt;/tr&gt; &lt;tr height=&quot;22&quot; style=&quot;height:16.5pt&quot;&gt;  &lt;td height=&quot;22&quot; class=&quot;xl65&quot; style=&quot;height:16.5pt&quot;&gt;#Version&lt;/td&gt; &lt;/tr&gt; &lt;tr height=&quot;22&quot; style=&quot;height:16.5pt&quot;&gt;  &lt;td height=&quot;22&quot; class=&quot;xl65&quot; style=&quot;height:16.5pt&quot;&gt;IsService&lt;/td&gt; &lt;/tr&gt; &lt;tr height=&quot;22&quot; style=&quot;height:16.5pt&quot;&gt;  &lt;td height=&quot;22&quot; class=&quot;xl65&quot; style=&quot;height:16.5pt&quot;&gt;ItemName&lt;/td&gt; &lt;/tr&gt; &lt;tr height=&quot;22&quot; style=&quot;height:16.5pt&quot;&gt;  &lt;td height=&quot;22&quot; class=&quot;xl65&quot; style=&quot;height:16.5pt&quot;&gt;ItemNameID&lt;/td&gt; &lt;/tr&gt; &lt;tr height=&quot;22&quot; style=&quot;height:16.5pt&quot;&gt;  &lt;td height=&quot;22&quot; class=&quot;xl65&quot; style=&quot;height:16.5pt&quot;&gt;ItemToolTipID&lt;/td&gt; &lt;/tr&gt; &lt;tr height=&quot;22&quot; style=&quot;height:16.5pt&quot;&gt;  &lt;td height=&quot;22&quot; class=&quot;xl65&quot; style=&quot;height:16.5pt&quot;&gt;IconID&lt;/td&gt; &lt;/tr&gt; &lt;tr height=&quot;22&quot; style=&quot;height:16.5pt&quot;&gt;  &lt;td height=&quot;22&quot; class=&quot;xl65&quot; style=&quot;height:16.5pt&quot;&gt;ItemCategory&lt;/td&gt; &lt;/tr&gt; &lt;tr height=&quot;22&quot; style=&quot;height:16.5pt&quot;&gt;  &lt;td height=&quot;22&quot; class=&quot;xl65&quot; style=&quot;height:16.5pt&quot;&gt;ItemType&lt;/td&gt; &lt;/tr&gt; &lt;tr height=&quot;22&quot; style=&quot;height:16.5pt&quot;&gt;  &lt;td height=&quot;22&quot; class=&quot;xl65&quot; style=&quot;height:16.5pt&quot;&gt;Grade&lt;/td&gt; &lt;/tr&gt; &lt;tr height=&quot;22&quot; style=&quot;height:16.5pt&quot;&gt;  &lt;td height=&quot;22&quot; class=&quot;xl65&quot; style=&quot;height:16.5pt&quot;&gt;MainOptionID&lt;/td&gt; &lt;/tr&gt; &lt;tr height=&quot;22&quot; style=&quot;height:16.5pt&quot;&gt;  &lt;td height=&quot;22&quot; class=&quot;xl65&quot; style=&quot;height:16.5pt&quot;&gt;SubOptionID&lt;/td&gt; &lt;/tr&gt;&lt;/tbody&gt;&lt;/table&gt;" style="text;whiteSpace=wrap;html=1;" vertex="1" parent="1">
          <mxGeometry x="400" y="1210" width="120" height="280" as="geometry" />
        </mxCell>
        <mxCell id="C0WDzYQqJSP90UdCh95B-83" value="Item" style="swimlane;fontStyle=0;childLayout=stackLayout;horizontal=1;startSize=30;horizontalStack=0;resizeParent=1;resizeParentMax=0;resizeLast=0;collapsible=1;marginBottom=0;whiteSpace=wrap;html=1;perimeterSpacing=1;strokeColor=default;" vertex="1" parent="1">
          <mxGeometry x="90" y="1550" width="140" height="480" as="geometry" />
        </mxCell>
        <mxCell id="C0WDzYQqJSP90UdCh95B-84" value="ItemID" style="text;strokeColor=default;fillColor=none;align=left;verticalAlign=middle;spacingLeft=4;spacingRight=4;overflow=hidden;points=[[0,0.5],[1,0.5]];portConstraint=eastwest;rotatable=0;whiteSpace=wrap;html=1;perimeterSpacing=1;" vertex="1" parent="C0WDzYQqJSP90UdCh95B-83">
          <mxGeometry y="30" width="140" height="30" as="geometry" />
        </mxCell>
        <mxCell id="C0WDzYQqJSP90UdCh95B-85" value="#Version" style="text;strokeColor=default;fillColor=none;align=left;verticalAlign=middle;spacingLeft=4;spacingRight=4;overflow=hidden;points=[[0,0.5],[1,0.5]];portConstraint=eastwest;rotatable=0;whiteSpace=wrap;html=1;perimeterSpacing=1;" vertex="1" parent="C0WDzYQqJSP90UdCh95B-83">
          <mxGeometry y="60" width="140" height="30" as="geometry" />
        </mxCell>
        <mxCell id="C0WDzYQqJSP90UdCh95B-86" value="IsService" style="text;strokeColor=default;fillColor=none;align=left;verticalAlign=middle;spacingLeft=4;spacingRight=4;overflow=hidden;points=[[0,0.5],[1,0.5]];portConstraint=eastwest;rotatable=0;whiteSpace=wrap;html=1;perimeterSpacing=1;" vertex="1" parent="C0WDzYQqJSP90UdCh95B-83">
          <mxGeometry y="90" width="140" height="30" as="geometry" />
        </mxCell>
        <mxCell id="C0WDzYQqJSP90UdCh95B-87" value="ItemName" style="text;strokeColor=default;fillColor=none;align=left;verticalAlign=middle;spacingLeft=4;spacingRight=4;overflow=hidden;points=[[0,0.5],[1,0.5]];portConstraint=eastwest;rotatable=0;whiteSpace=wrap;html=1;perimeterSpacing=1;" vertex="1" parent="C0WDzYQqJSP90UdCh95B-83">
          <mxGeometry y="120" width="140" height="30" as="geometry" />
        </mxCell>
        <mxCell id="C0WDzYQqJSP90UdCh95B-88" value="ItemNameKey" style="text;strokeColor=default;fillColor=none;align=left;verticalAlign=middle;spacingLeft=4;spacingRight=4;overflow=hidden;points=[[0,0.5],[1,0.5]];portConstraint=eastwest;rotatable=0;whiteSpace=wrap;html=1;perimeterSpacing=1;" vertex="1" parent="C0WDzYQqJSP90UdCh95B-83">
          <mxGeometry y="150" width="140" height="30" as="geometry" />
        </mxCell>
        <mxCell id="C0WDzYQqJSP90UdCh95B-89" value="ItemTooltipKey" style="text;strokeColor=default;fillColor=none;align=left;verticalAlign=middle;spacingLeft=4;spacingRight=4;overflow=hidden;points=[[0,0.5],[1,0.5]];portConstraint=eastwest;rotatable=0;whiteSpace=wrap;html=1;perimeterSpacing=1;" vertex="1" parent="C0WDzYQqJSP90UdCh95B-83">
          <mxGeometry y="180" width="140" height="30" as="geometry" />
        </mxCell>
        <mxCell id="C0WDzYQqJSP90UdCh95B-90" value="IconID" style="text;strokeColor=default;fillColor=none;align=left;verticalAlign=middle;spacingLeft=4;spacingRight=4;overflow=hidden;points=[[0,0.5],[1,0.5]];portConstraint=eastwest;rotatable=0;whiteSpace=wrap;html=1;perimeterSpacing=1;" vertex="1" parent="C0WDzYQqJSP90UdCh95B-83">
          <mxGeometry y="210" width="140" height="30" as="geometry" />
        </mxCell>
        <mxCell id="C0WDzYQqJSP90UdCh95B-91" value="ItemCategory" style="text;strokeColor=default;fillColor=none;align=left;verticalAlign=middle;spacingLeft=4;spacingRight=4;overflow=hidden;points=[[0,0.5],[1,0.5]];portConstraint=eastwest;rotatable=0;whiteSpace=wrap;html=1;perimeterSpacing=1;" vertex="1" parent="C0WDzYQqJSP90UdCh95B-83">
          <mxGeometry y="240" width="140" height="30" as="geometry" />
        </mxCell>
        <mxCell id="C0WDzYQqJSP90UdCh95B-92" value="ItemType" style="text;strokeColor=default;fillColor=none;align=left;verticalAlign=middle;spacingLeft=4;spacingRight=4;overflow=hidden;points=[[0,0.5],[1,0.5]];portConstraint=eastwest;rotatable=0;whiteSpace=wrap;html=1;perimeterSpacing=1;" vertex="1" parent="C0WDzYQqJSP90UdCh95B-83">
          <mxGeometry y="270" width="140" height="30" as="geometry" />
        </mxCell>
        <mxCell id="C0WDzYQqJSP90UdCh95B-93" value="Grade" style="text;strokeColor=default;fillColor=none;align=left;verticalAlign=middle;spacingLeft=4;spacingRight=4;overflow=hidden;points=[[0,0.5],[1,0.5]];portConstraint=eastwest;rotatable=0;whiteSpace=wrap;html=1;perimeterSpacing=1;" vertex="1" parent="C0WDzYQqJSP90UdCh95B-83">
          <mxGeometry y="300" width="140" height="30" as="geometry" />
        </mxCell>
        <mxCell id="C0WDzYQqJSP90UdCh95B-94" value="Stack" style="text;strokeColor=default;fillColor=none;align=left;verticalAlign=middle;spacingLeft=4;spacingRight=4;overflow=hidden;points=[[0,0.5],[1,0.5]];portConstraint=eastwest;rotatable=0;whiteSpace=wrap;html=1;perimeterSpacing=1;" vertex="1" parent="C0WDzYQqJSP90UdCh95B-83">
          <mxGeometry y="330" width="140" height="30" as="geometry" />
        </mxCell>
        <mxCell id="C0WDzYQqJSP90UdCh95B-95" value="MainOptionID" style="text;strokeColor=default;fillColor=none;align=left;verticalAlign=middle;spacingLeft=4;spacingRight=4;overflow=hidden;points=[[0,0.5],[1,0.5]];portConstraint=eastwest;rotatable=0;whiteSpace=wrap;html=1;perimeterSpacing=1;" vertex="1" parent="C0WDzYQqJSP90UdCh95B-83">
          <mxGeometry y="360" width="140" height="30" as="geometry" />
        </mxCell>
        <mxCell id="C0WDzYQqJSP90UdCh95B-96" value="SubOptionID" style="text;strokeColor=default;fillColor=none;align=left;verticalAlign=middle;spacingLeft=4;spacingRight=4;overflow=hidden;points=[[0,0.5],[1,0.5]];portConstraint=eastwest;rotatable=0;whiteSpace=wrap;html=1;perimeterSpacing=1;" vertex="1" parent="C0WDzYQqJSP90UdCh95B-83">
          <mxGeometry y="390" width="140" height="30" as="geometry" />
        </mxCell>
        <mxCell id="C0WDzYQqJSP90UdCh95B-97" value="SpecialOptionID" style="text;strokeColor=default;fillColor=none;align=left;verticalAlign=middle;spacingLeft=4;spacingRight=4;overflow=hidden;points=[[0,0.5],[1,0.5]];portConstraint=eastwest;rotatable=0;whiteSpace=wrap;html=1;perimeterSpacing=1;" vertex="1" parent="C0WDzYQqJSP90UdCh95B-83">
          <mxGeometry y="420" width="140" height="30" as="geometry" />
        </mxCell>
        <mxCell id="C0WDzYQqJSP90UdCh95B-98" value="ConsumeValue" style="text;strokeColor=default;fillColor=none;align=left;verticalAlign=middle;spacingLeft=4;spacingRight=4;overflow=hidden;points=[[0,0.5],[1,0.5]];portConstraint=eastwest;rotatable=0;whiteSpace=wrap;html=1;perimeterSpacing=1;" vertex="1" parent="C0WDzYQqJSP90UdCh95B-83">
          <mxGeometry y="450" width="140" height="30" as="geometry" />
        </mxCell>
        <mxCell id="C0WDzYQqJSP90UdCh95B-99" value="Item_Option_Main" style="swimlane;fontStyle=0;childLayout=stackLayout;horizontal=1;startSize=30;horizontalStack=0;resizeParent=1;resizeParentMax=0;resizeLast=0;collapsible=1;marginBottom=0;whiteSpace=wrap;html=1;perimeterSpacing=1;strokeColor=default;" vertex="1" parent="1">
          <mxGeometry x="270" y="1550" width="140" height="240" as="geometry" />
        </mxCell>
        <mxCell id="C0WDzYQqJSP90UdCh95B-100" value="TID" style="text;strokeColor=default;fillColor=none;align=left;verticalAlign=middle;spacingLeft=4;spacingRight=4;overflow=hidden;points=[[0,0.5],[1,0.5]];portConstraint=eastwest;rotatable=0;whiteSpace=wrap;html=1;perimeterSpacing=1;" vertex="1" parent="C0WDzYQqJSP90UdCh95B-99">
          <mxGeometry y="30" width="140" height="30" as="geometry" />
        </mxCell>
        <mxCell id="C0WDzYQqJSP90UdCh95B-101" value="#Version" style="text;strokeColor=default;fillColor=none;align=left;verticalAlign=middle;spacingLeft=4;spacingRight=4;overflow=hidden;points=[[0,0.5],[1,0.5]];portConstraint=eastwest;rotatable=0;whiteSpace=wrap;html=1;perimeterSpacing=1;" vertex="1" parent="C0WDzYQqJSP90UdCh95B-99">
          <mxGeometry y="60" width="140" height="30" as="geometry" />
        </mxCell>
        <mxCell id="C0WDzYQqJSP90UdCh95B-102" value="IsService" style="text;strokeColor=default;fillColor=none;align=left;verticalAlign=middle;spacingLeft=4;spacingRight=4;overflow=hidden;points=[[0,0.5],[1,0.5]];portConstraint=eastwest;rotatable=0;whiteSpace=wrap;html=1;perimeterSpacing=1;" vertex="1" parent="C0WDzYQqJSP90UdCh95B-99">
          <mxGeometry y="90" width="140" height="30" as="geometry" />
        </mxCell>
        <mxCell id="C0WDzYQqJSP90UdCh95B-103" value="MainOptionID" style="text;strokeColor=default;fillColor=none;align=left;verticalAlign=middle;spacingLeft=4;spacingRight=4;overflow=hidden;points=[[0,0.5],[1,0.5]];portConstraint=eastwest;rotatable=0;whiteSpace=wrap;html=1;perimeterSpacing=1;" vertex="1" parent="C0WDzYQqJSP90UdCh95B-99">
          <mxGeometry y="120" width="140" height="30" as="geometry" />
        </mxCell>
        <mxCell id="C0WDzYQqJSP90UdCh95B-104" value="Lv" style="text;strokeColor=default;fillColor=none;align=left;verticalAlign=middle;spacingLeft=4;spacingRight=4;overflow=hidden;points=[[0,0.5],[1,0.5]];portConstraint=eastwest;rotatable=0;whiteSpace=wrap;html=1;perimeterSpacing=1;" vertex="1" parent="C0WDzYQqJSP90UdCh95B-99">
          <mxGeometry y="150" width="140" height="30" as="geometry" />
        </mxCell>
        <mxCell id="C0WDzYQqJSP90UdCh95B-105" value="StatID" style="text;strokeColor=default;fillColor=none;align=left;verticalAlign=middle;spacingLeft=4;spacingRight=4;overflow=hidden;points=[[0,0.5],[1,0.5]];portConstraint=eastwest;rotatable=0;whiteSpace=wrap;html=1;perimeterSpacing=1;" vertex="1" parent="C0WDzYQqJSP90UdCh95B-99">
          <mxGeometry y="180" width="140" height="30" as="geometry" />
        </mxCell>
        <mxCell id="C0WDzYQqJSP90UdCh95B-106" value="StatValue" style="text;strokeColor=default;fillColor=none;align=left;verticalAlign=middle;spacingLeft=4;spacingRight=4;overflow=hidden;points=[[0,0.5],[1,0.5]];portConstraint=eastwest;rotatable=0;whiteSpace=wrap;html=1;perimeterSpacing=1;" vertex="1" parent="C0WDzYQqJSP90UdCh95B-99">
          <mxGeometry y="210" width="140" height="30" as="geometry" />
        </mxCell>
        <mxCell id="C0WDzYQqJSP90UdCh95B-107" value="Item_Option_Sub" style="swimlane;fontStyle=0;childLayout=stackLayout;horizontal=1;startSize=30;horizontalStack=0;resizeParent=1;resizeParentMax=0;resizeLast=0;collapsible=1;marginBottom=0;whiteSpace=wrap;html=1;perimeterSpacing=1;strokeColor=default;" vertex="1" parent="1">
          <mxGeometry x="446" y="1550" width="140" height="330" as="geometry" />
        </mxCell>
        <mxCell id="C0WDzYQqJSP90UdCh95B-108" value="TID" style="text;strokeColor=default;fillColor=none;align=left;verticalAlign=middle;spacingLeft=4;spacingRight=4;overflow=hidden;points=[[0,0.5],[1,0.5]];portConstraint=eastwest;rotatable=0;whiteSpace=wrap;html=1;perimeterSpacing=1;" vertex="1" parent="C0WDzYQqJSP90UdCh95B-107">
          <mxGeometry y="30" width="140" height="30" as="geometry" />
        </mxCell>
        <mxCell id="C0WDzYQqJSP90UdCh95B-109" value="#Version" style="text;strokeColor=default;fillColor=none;align=left;verticalAlign=middle;spacingLeft=4;spacingRight=4;overflow=hidden;points=[[0,0.5],[1,0.5]];portConstraint=eastwest;rotatable=0;whiteSpace=wrap;html=1;perimeterSpacing=1;" vertex="1" parent="C0WDzYQqJSP90UdCh95B-107">
          <mxGeometry y="60" width="140" height="30" as="geometry" />
        </mxCell>
        <mxCell id="C0WDzYQqJSP90UdCh95B-110" value="IsService" style="text;strokeColor=default;fillColor=none;align=left;verticalAlign=middle;spacingLeft=4;spacingRight=4;overflow=hidden;points=[[0,0.5],[1,0.5]];portConstraint=eastwest;rotatable=0;whiteSpace=wrap;html=1;perimeterSpacing=1;" vertex="1" parent="C0WDzYQqJSP90UdCh95B-107">
          <mxGeometry y="90" width="140" height="30" as="geometry" />
        </mxCell>
        <mxCell id="C0WDzYQqJSP90UdCh95B-111" value="SubOptionID" style="text;strokeColor=default;fillColor=none;align=left;verticalAlign=middle;spacingLeft=4;spacingRight=4;overflow=hidden;points=[[0,0.5],[1,0.5]];portConstraint=eastwest;rotatable=0;whiteSpace=wrap;html=1;perimeterSpacing=1;" vertex="1" parent="C0WDzYQqJSP90UdCh95B-107">
          <mxGeometry y="120" width="140" height="30" as="geometry" />
        </mxCell>
        <mxCell id="C0WDzYQqJSP90UdCh95B-112" value="StatID" style="text;strokeColor=default;fillColor=none;align=left;verticalAlign=middle;spacingLeft=4;spacingRight=4;overflow=hidden;points=[[0,0.5],[1,0.5]];portConstraint=eastwest;rotatable=0;whiteSpace=wrap;html=1;perimeterSpacing=1;" vertex="1" parent="C0WDzYQqJSP90UdCh95B-107">
          <mxGeometry y="150" width="140" height="30" as="geometry" />
        </mxCell>
        <mxCell id="C0WDzYQqJSP90UdCh95B-113" value="Probablity" style="text;strokeColor=default;fillColor=none;align=left;verticalAlign=middle;spacingLeft=4;spacingRight=4;overflow=hidden;points=[[0,0.5],[1,0.5]];portConstraint=eastwest;rotatable=0;whiteSpace=wrap;html=1;perimeterSpacing=1;" vertex="1" parent="C0WDzYQqJSP90UdCh95B-107">
          <mxGeometry y="180" width="140" height="30" as="geometry" />
        </mxCell>
        <mxCell id="C0WDzYQqJSP90UdCh95B-114" value="MinValue" style="text;strokeColor=default;fillColor=none;align=left;verticalAlign=middle;spacingLeft=4;spacingRight=4;overflow=hidden;points=[[0,0.5],[1,0.5]];portConstraint=eastwest;rotatable=0;whiteSpace=wrap;html=1;perimeterSpacing=1;" vertex="1" parent="C0WDzYQqJSP90UdCh95B-107">
          <mxGeometry y="210" width="140" height="30" as="geometry" />
        </mxCell>
        <mxCell id="C0WDzYQqJSP90UdCh95B-115" value="MaxValue" style="text;strokeColor=default;fillColor=none;align=left;verticalAlign=middle;spacingLeft=4;spacingRight=4;overflow=hidden;points=[[0,0.5],[1,0.5]];portConstraint=eastwest;rotatable=0;whiteSpace=wrap;html=1;perimeterSpacing=1;" vertex="1" parent="C0WDzYQqJSP90UdCh95B-107">
          <mxGeometry y="240" width="140" height="30" as="geometry" />
        </mxCell>
        <mxCell id="C0WDzYQqJSP90UdCh95B-116" value="Step" style="text;strokeColor=default;fillColor=none;align=left;verticalAlign=middle;spacingLeft=4;spacingRight=4;overflow=hidden;points=[[0,0.5],[1,0.5]];portConstraint=eastwest;rotatable=0;whiteSpace=wrap;html=1;perimeterSpacing=1;" vertex="1" parent="C0WDzYQqJSP90UdCh95B-107">
          <mxGeometry y="270" width="140" height="30" as="geometry" />
        </mxCell>
        <mxCell id="C0WDzYQqJSP90UdCh95B-117" value="StartStepMax" style="text;strokeColor=default;fillColor=none;align=left;verticalAlign=middle;spacingLeft=4;spacingRight=4;overflow=hidden;points=[[0,0.5],[1,0.5]];portConstraint=eastwest;rotatable=0;whiteSpace=wrap;html=1;perimeterSpacing=1;" vertex="1" parent="C0WDzYQqJSP90UdCh95B-107">
          <mxGeometry y="300" width="140" height="30" as="geometry" />
        </mxCell>
        <mxCell id="C0WDzYQqJSP90UdCh95B-118" value="Item_Option_Special" style="swimlane;fontStyle=0;childLayout=stackLayout;horizontal=1;startSize=30;horizontalStack=0;resizeParent=1;resizeParentMax=0;resizeLast=0;collapsible=1;marginBottom=0;whiteSpace=wrap;html=1;perimeterSpacing=1;strokeColor=default;" vertex="1" parent="1">
          <mxGeometry x="626" y="1550" width="140" height="270" as="geometry" />
        </mxCell>
        <mxCell id="C0WDzYQqJSP90UdCh95B-119" value="TID" style="text;strokeColor=default;fillColor=none;align=left;verticalAlign=middle;spacingLeft=4;spacingRight=4;overflow=hidden;points=[[0,0.5],[1,0.5]];portConstraint=eastwest;rotatable=0;whiteSpace=wrap;html=1;perimeterSpacing=1;" vertex="1" parent="C0WDzYQqJSP90UdCh95B-118">
          <mxGeometry y="30" width="140" height="30" as="geometry" />
        </mxCell>
        <mxCell id="C0WDzYQqJSP90UdCh95B-120" value="#Version" style="text;strokeColor=default;fillColor=none;align=left;verticalAlign=middle;spacingLeft=4;spacingRight=4;overflow=hidden;points=[[0,0.5],[1,0.5]];portConstraint=eastwest;rotatable=0;whiteSpace=wrap;html=1;perimeterSpacing=1;" vertex="1" parent="C0WDzYQqJSP90UdCh95B-118">
          <mxGeometry y="60" width="140" height="30" as="geometry" />
        </mxCell>
        <mxCell id="C0WDzYQqJSP90UdCh95B-121" value="IsService" style="text;strokeColor=default;fillColor=none;align=left;verticalAlign=middle;spacingLeft=4;spacingRight=4;overflow=hidden;points=[[0,0.5],[1,0.5]];portConstraint=eastwest;rotatable=0;whiteSpace=wrap;html=1;perimeterSpacing=1;" vertex="1" parent="C0WDzYQqJSP90UdCh95B-118">
          <mxGeometry y="90" width="140" height="30" as="geometry" />
        </mxCell>
        <mxCell id="C0WDzYQqJSP90UdCh95B-122" value="SpecialOptionID" style="text;strokeColor=default;fillColor=none;align=left;verticalAlign=middle;spacingLeft=4;spacingRight=4;overflow=hidden;points=[[0,0.5],[1,0.5]];portConstraint=eastwest;rotatable=0;whiteSpace=wrap;html=1;perimeterSpacing=1;" vertex="1" parent="C0WDzYQqJSP90UdCh95B-118">
          <mxGeometry y="120" width="140" height="30" as="geometry" />
        </mxCell>
        <mxCell id="C0WDzYQqJSP90UdCh95B-123" value="OptionType" style="text;strokeColor=default;fillColor=none;align=left;verticalAlign=middle;spacingLeft=4;spacingRight=4;overflow=hidden;points=[[0,0.5],[1,0.5]];portConstraint=eastwest;rotatable=0;whiteSpace=wrap;html=1;perimeterSpacing=1;" vertex="1" parent="C0WDzYQqJSP90UdCh95B-118">
          <mxGeometry y="150" width="140" height="30" as="geometry" />
        </mxCell>
        <mxCell id="C0WDzYQqJSP90UdCh95B-124" value="SetCount" style="text;strokeColor=default;fillColor=none;align=left;verticalAlign=middle;spacingLeft=4;spacingRight=4;overflow=hidden;points=[[0,0.5],[1,0.5]];portConstraint=eastwest;rotatable=0;whiteSpace=wrap;html=1;perimeterSpacing=1;" vertex="1" parent="C0WDzYQqJSP90UdCh95B-118">
          <mxGeometry y="180" width="140" height="30" as="geometry" />
        </mxCell>
        <mxCell id="C0WDzYQqJSP90UdCh95B-125" value="CharacterID" style="text;strokeColor=default;fillColor=none;align=left;verticalAlign=middle;spacingLeft=4;spacingRight=4;overflow=hidden;points=[[0,0.5],[1,0.5]];portConstraint=eastwest;rotatable=0;whiteSpace=wrap;html=1;perimeterSpacing=1;" vertex="1" parent="C0WDzYQqJSP90UdCh95B-118">
          <mxGeometry y="210" width="140" height="30" as="geometry" />
        </mxCell>
        <mxCell id="C0WDzYQqJSP90UdCh95B-126" value="OptionValue" style="text;strokeColor=default;fillColor=none;align=left;verticalAlign=middle;spacingLeft=4;spacingRight=4;overflow=hidden;points=[[0,0.5],[1,0.5]];portConstraint=eastwest;rotatable=0;whiteSpace=wrap;html=1;perimeterSpacing=1;" vertex="1" parent="C0WDzYQqJSP90UdCh95B-118">
          <mxGeometry y="240" width="140" height="30" as="geometry" />
        </mxCell>
        <mxCell id="C0WDzYQqJSP90UdCh95B-127" value="GameConfig" style="swimlane;fontStyle=0;childLayout=stackLayout;horizontal=1;startSize=30;horizontalStack=0;resizeParent=1;resizeParentMax=0;resizeLast=0;collapsible=1;marginBottom=0;whiteSpace=wrap;html=1;perimeterSpacing=1;strokeColor=default;" vertex="1" parent="1">
          <mxGeometry x="270" y="1919" width="140" height="300" as="geometry" />
        </mxCell>
        <mxCell id="C0WDzYQqJSP90UdCh95B-128" value="TID" style="text;strokeColor=default;fillColor=none;align=left;verticalAlign=middle;spacingLeft=4;spacingRight=4;overflow=hidden;points=[[0,0.5],[1,0.5]];portConstraint=eastwest;rotatable=0;whiteSpace=wrap;html=1;perimeterSpacing=1;" vertex="1" parent="C0WDzYQqJSP90UdCh95B-127">
          <mxGeometry y="30" width="140" height="30" as="geometry" />
        </mxCell>
        <mxCell id="C0WDzYQqJSP90UdCh95B-129" value="#Version" style="text;strokeColor=default;fillColor=none;align=left;verticalAlign=middle;spacingLeft=4;spacingRight=4;overflow=hidden;points=[[0,0.5],[1,0.5]];portConstraint=eastwest;rotatable=0;whiteSpace=wrap;html=1;perimeterSpacing=1;" vertex="1" parent="C0WDzYQqJSP90UdCh95B-127">
          <mxGeometry y="60" width="140" height="30" as="geometry" />
        </mxCell>
        <mxCell id="C0WDzYQqJSP90UdCh95B-130" value="Grade" style="text;strokeColor=default;fillColor=none;align=left;verticalAlign=middle;spacingLeft=4;spacingRight=4;overflow=hidden;points=[[0,0.5],[1,0.5]];portConstraint=eastwest;rotatable=0;whiteSpace=wrap;html=1;perimeterSpacing=1;" vertex="1" parent="C0WDzYQqJSP90UdCh95B-127">
          <mxGeometry y="90" width="140" height="30" as="geometry" />
        </mxCell>
        <mxCell id="C0WDzYQqJSP90UdCh95B-131" value="SubOptionCount" style="text;strokeColor=default;fillColor=none;align=left;verticalAlign=middle;spacingLeft=4;spacingRight=4;overflow=hidden;points=[[0,0.5],[1,0.5]];portConstraint=eastwest;rotatable=0;whiteSpace=wrap;html=1;perimeterSpacing=1;" vertex="1" parent="C0WDzYQqJSP90UdCh95B-127">
          <mxGeometry y="120" width="140" height="30" as="geometry" />
        </mxCell>
        <mxCell id="C0WDzYQqJSP90UdCh95B-132" value="StatID" style="text;strokeColor=default;fillColor=none;align=left;verticalAlign=middle;spacingLeft=4;spacingRight=4;overflow=hidden;points=[[0,0.5],[1,0.5]];portConstraint=eastwest;rotatable=0;whiteSpace=wrap;html=1;perimeterSpacing=1;" vertex="1" parent="C0WDzYQqJSP90UdCh95B-127">
          <mxGeometry y="150" width="140" height="30" as="geometry" />
        </mxCell>
        <mxCell id="C0WDzYQqJSP90UdCh95B-133" value="Probablity" style="text;strokeColor=default;fillColor=none;align=left;verticalAlign=middle;spacingLeft=4;spacingRight=4;overflow=hidden;points=[[0,0.5],[1,0.5]];portConstraint=eastwest;rotatable=0;whiteSpace=wrap;html=1;perimeterSpacing=1;" vertex="1" parent="C0WDzYQqJSP90UdCh95B-127">
          <mxGeometry y="180" width="140" height="30" as="geometry" />
        </mxCell>
        <mxCell id="C0WDzYQqJSP90UdCh95B-134" value="MinValue" style="text;strokeColor=default;fillColor=none;align=left;verticalAlign=middle;spacingLeft=4;spacingRight=4;overflow=hidden;points=[[0,0.5],[1,0.5]];portConstraint=eastwest;rotatable=0;whiteSpace=wrap;html=1;perimeterSpacing=1;" vertex="1" parent="C0WDzYQqJSP90UdCh95B-127">
          <mxGeometry y="210" width="140" height="30" as="geometry" />
        </mxCell>
        <mxCell id="C0WDzYQqJSP90UdCh95B-135" value="MaxValue" style="text;strokeColor=default;fillColor=none;align=left;verticalAlign=middle;spacingLeft=4;spacingRight=4;overflow=hidden;points=[[0,0.5],[1,0.5]];portConstraint=eastwest;rotatable=0;whiteSpace=wrap;html=1;perimeterSpacing=1;" vertex="1" parent="C0WDzYQqJSP90UdCh95B-127">
          <mxGeometry y="240" width="140" height="30" as="geometry" />
        </mxCell>
        <mxCell id="C0WDzYQqJSP90UdCh95B-136" value="Step" style="text;strokeColor=default;fillColor=none;align=left;verticalAlign=middle;spacingLeft=4;spacingRight=4;overflow=hidden;points=[[0,0.5],[1,0.5]];portConstraint=eastwest;rotatable=0;whiteSpace=wrap;html=1;perimeterSpacing=1;" vertex="1" parent="C0WDzYQqJSP90UdCh95B-127">
          <mxGeometry y="270" width="140" height="30" as="geometry" />
        </mxCell>
        <mxCell id="C0WDzYQqJSP90UdCh95B-137" value="Craft" style="swimlane;fontStyle=0;childLayout=stackLayout;horizontal=1;startSize=30;horizontalStack=0;resizeParent=1;resizeParentMax=0;resizeLast=0;collapsible=1;marginBottom=0;whiteSpace=wrap;html=1;perimeterSpacing=1;strokeColor=default;" vertex="1" parent="1">
          <mxGeometry x="1110" y="1560" width="140" height="420" as="geometry" />
        </mxCell>
        <mxCell id="C0WDzYQqJSP90UdCh95B-138" value="ID" style="text;strokeColor=default;fillColor=none;align=left;verticalAlign=middle;spacingLeft=4;spacingRight=4;overflow=hidden;points=[[0,0.5],[1,0.5]];portConstraint=eastwest;rotatable=0;whiteSpace=wrap;html=1;perimeterSpacing=1;" vertex="1" parent="C0WDzYQqJSP90UdCh95B-137">
          <mxGeometry y="30" width="140" height="30" as="geometry" />
        </mxCell>
        <mxCell id="C0WDzYQqJSP90UdCh95B-139" value="#Version" style="text;strokeColor=default;fillColor=none;align=left;verticalAlign=middle;spacingLeft=4;spacingRight=4;overflow=hidden;points=[[0,0.5],[1,0.5]];portConstraint=eastwest;rotatable=0;whiteSpace=wrap;html=1;perimeterSpacing=1;" vertex="1" parent="C0WDzYQqJSP90UdCh95B-137">
          <mxGeometry y="60" width="140" height="30" as="geometry" />
        </mxCell>
        <mxCell id="C0WDzYQqJSP90UdCh95B-140" value="IsService" style="text;strokeColor=default;fillColor=none;align=left;verticalAlign=middle;spacingLeft=4;spacingRight=4;overflow=hidden;points=[[0,0.5],[1,0.5]];portConstraint=eastwest;rotatable=0;whiteSpace=wrap;html=1;perimeterSpacing=1;" vertex="1" parent="C0WDzYQqJSP90UdCh95B-137">
          <mxGeometry y="90" width="140" height="30" as="geometry" />
        </mxCell>
        <mxCell id="C0WDzYQqJSP90UdCh95B-141" value="Category" style="text;strokeColor=default;fillColor=none;align=left;verticalAlign=middle;spacingLeft=4;spacingRight=4;overflow=hidden;points=[[0,0.5],[1,0.5]];portConstraint=eastwest;rotatable=0;whiteSpace=wrap;html=1;perimeterSpacing=1;" vertex="1" parent="C0WDzYQqJSP90UdCh95B-137">
          <mxGeometry y="120" width="140" height="30" as="geometry" />
        </mxCell>
        <mxCell id="C0WDzYQqJSP90UdCh95B-142" value="ResultID" style="text;strokeColor=default;fillColor=none;align=left;verticalAlign=middle;spacingLeft=4;spacingRight=4;overflow=hidden;points=[[0,0.5],[1,0.5]];portConstraint=eastwest;rotatable=0;whiteSpace=wrap;html=1;perimeterSpacing=1;" vertex="1" parent="C0WDzYQqJSP90UdCh95B-137">
          <mxGeometry y="150" width="140" height="30" as="geometry" />
        </mxCell>
        <mxCell id="C0WDzYQqJSP90UdCh95B-143" value="RecipeID" style="text;strokeColor=default;fillColor=none;align=left;verticalAlign=middle;spacingLeft=4;spacingRight=4;overflow=hidden;points=[[0,0.5],[1,0.5]];portConstraint=eastwest;rotatable=0;whiteSpace=wrap;html=1;perimeterSpacing=1;" vertex="1" parent="C0WDzYQqJSP90UdCh95B-137">
          <mxGeometry y="180" width="140" height="30" as="geometry" />
        </mxCell>
        <mxCell id="C0WDzYQqJSP90UdCh95B-144" value="CustomSlotCount" style="text;strokeColor=default;fillColor=none;align=left;verticalAlign=middle;spacingLeft=4;spacingRight=4;overflow=hidden;points=[[0,0.5],[1,0.5]];portConstraint=eastwest;rotatable=0;whiteSpace=wrap;html=1;perimeterSpacing=1;" vertex="1" parent="C0WDzYQqJSP90UdCh95B-137">
          <mxGeometry y="210" width="140" height="30" as="geometry" />
        </mxCell>
        <mxCell id="C0WDzYQqJSP90UdCh95B-145" value="CustomSlotType" style="text;strokeColor=default;fillColor=none;align=left;verticalAlign=middle;spacingLeft=4;spacingRight=4;overflow=hidden;points=[[0,0.5],[1,0.5]];portConstraint=eastwest;rotatable=0;whiteSpace=wrap;html=1;perimeterSpacing=1;" vertex="1" parent="C0WDzYQqJSP90UdCh95B-137">
          <mxGeometry y="240" width="140" height="30" as="geometry" />
        </mxCell>
        <mxCell id="C0WDzYQqJSP90UdCh95B-146" value="ResultType" style="text;strokeColor=default;fillColor=none;align=left;verticalAlign=middle;spacingLeft=4;spacingRight=4;overflow=hidden;points=[[0,0.5],[1,0.5]];portConstraint=eastwest;rotatable=0;whiteSpace=wrap;html=1;perimeterSpacing=1;" vertex="1" parent="C0WDzYQqJSP90UdCh95B-137">
          <mxGeometry y="270" width="140" height="30" as="geometry" />
        </mxCell>
        <mxCell id="C0WDzYQqJSP90UdCh95B-147" value="ResultID" style="text;strokeColor=default;fillColor=none;align=left;verticalAlign=middle;spacingLeft=4;spacingRight=4;overflow=hidden;points=[[0,0.5],[1,0.5]];portConstraint=eastwest;rotatable=0;whiteSpace=wrap;html=1;perimeterSpacing=1;" vertex="1" parent="C0WDzYQqJSP90UdCh95B-137">
          <mxGeometry y="300" width="140" height="30" as="geometry" />
        </mxCell>
        <mxCell id="C0WDzYQqJSP90UdCh95B-148" value="RecipeID" style="text;strokeColor=default;fillColor=none;align=left;verticalAlign=middle;spacingLeft=4;spacingRight=4;overflow=hidden;points=[[0,0.5],[1,0.5]];portConstraint=eastwest;rotatable=0;whiteSpace=wrap;html=1;perimeterSpacing=1;" vertex="1" parent="C0WDzYQqJSP90UdCh95B-137">
          <mxGeometry y="330" width="140" height="30" as="geometry" />
        </mxCell>
        <mxCell id="C0WDzYQqJSP90UdCh95B-149" value="CustomSlotCount" style="text;strokeColor=default;fillColor=none;align=left;verticalAlign=middle;spacingLeft=4;spacingRight=4;overflow=hidden;points=[[0,0.5],[1,0.5]];portConstraint=eastwest;rotatable=0;whiteSpace=wrap;html=1;perimeterSpacing=1;" vertex="1" parent="C0WDzYQqJSP90UdCh95B-137">
          <mxGeometry y="360" width="140" height="30" as="geometry" />
        </mxCell>
        <mxCell id="C0WDzYQqJSP90UdCh95B-150" value="CustomSlotType" style="text;strokeColor=default;fillColor=none;align=left;verticalAlign=middle;spacingLeft=4;spacingRight=4;overflow=hidden;points=[[0,0.5],[1,0.5]];portConstraint=eastwest;rotatable=0;whiteSpace=wrap;html=1;perimeterSpacing=1;" vertex="1" parent="C0WDzYQqJSP90UdCh95B-137">
          <mxGeometry y="390" width="140" height="30" as="geometry" />
        </mxCell>
      </root>
    </mxGraphModel>
  </diagram>
</mxfile>
